<svg xmlns="http://www.w3.org/2000/svg" viewBox="0 0 64 64" role="img" aria-label="Couple website favicon">
  <defs>
    <linearGradient id="bg" x1="8" y1="5" x2="56" y2="60" gradientUnits="userSpaceOnUse">
      <stop offset="0" stop-color="#FFE7F0"/>
      <stop offset="0.48" stop-color="#FFB7CF"/>
      <stop offset="1" stop-color="#FF5D8F"/>
    </linearGradient>
    <linearGradient id="heart" x1="19" y1="16" x2="45" y2="50" gradientUnits="userSpaceOnUse">
      <stop offset="0" stop-color="#FFFFFF"/>
      <stop offset="1" stop-color="#FFF4F8"/>
    </linearGradient>
    <filter id="shadow" x="-20%" y="-20%" width="140%" height="140%" color-interpolation-filters="sRGB">
      <feDropShadow dx="0" dy="3" stdDeviation="2.4" flood-color="#9F1239" flood-opacity="0.26"/>
    </filter>
    <style>
      @media (prefers-color-scheme: dark) {
        .base { fill: #2A0F1E; }
        .glow { opacity: .22; }
      }
    </style>
  </defs>

  <rect class="base" x="4" y="4" width="56" height="56" rx="17" fill="url(#bg)"/>
  <circle class="glow" cx="20" cy="17" r="15" fill="#FFFFFF" opacity="0.34"/>

  <g filter="url(#shadow)">
    <path fill="url(#heart)" d="M32 50.5c-.72-.66-16.8-10.1-16.8-22.45 0-6.1 4.55-10.65 10.15-10.65 3.2 0 5.36 1.48 6.65 3.58 1.29-2.1 3.45-3.58 6.65-3.58 5.6 0 10.15 4.55 10.15 10.65C48.8 40.4 32.72 49.84 32 50.5Z"/>
    <path fill="#FF4F83" d="M32 42.4c-.36-.34-8.6-5.18-8.6-11.55 0-3.1 2.28-5.45 5.08-5.45 1.65 0 2.78.76 3.52 1.86.74-1.1 1.87-1.86 3.52-1.86 2.8 0 5.08 2.35 5.08 5.45 0 6.37-8.24 11.21-8.6 11.55Z"/>
  </g>

  <path d="M46.5 13.8l1.18 2.45 2.64.38-1.91 1.88.45 2.65-2.36-1.25-2.36 1.25.45-2.65-1.91-1.88 2.64-.38 1.18-2.45Z" fill="#FFFFFF" opacity="0.92"/>
</svg>
